HIERARCHY
ROOT hip
{
  OFFSET 0 0 0
  CHANNELS 6 Xposition Yposition Zposition Zrotation Yrotation Xrotation
  JOINT abdomen
  {
    OFFSET 0 20.6881 -0.73152
    CHANNELS 3 Zrotation Xrotation Yrotation
    JOINT chest
    {
      OFFSET 0 11.7043 -0.48768
      CHANNELS 3 Zrotation Xrotation Yrotation
      JOINT neck
      {
        OFFSET 0 22.1894 -2.19456
        CHANNELS 3 Zrotation Xrotation Yrotation
        JOINT head
        {
          OFFSET -0.24384 7.07133 1.2192
          CHANNELS 3 Zrotation Xrotation Yrotation
          JOINT leftEye
          {
            OFFSET 4.14528 8.04674 8.04672
            CHANNELS 3 Zrotation Xrotation Yrotation
            End Site
            {
              OFFSET 1 0 0
            }
          }
          JOINT rightEye
          {
            OFFSET -3.6576 8.04674 8.04672
            CHANNELS 3 Zrotation Xrotation Yrotation
            End Site
            {
              OFFSET 1 0 0
            }
          }
        }
      }
      JOINT rCollar
      {
        OFFSET -2.68224 19.2634 -4.8768
        CHANNELS 3 Zrotation Xrotation Yrotation
        JOINT rShldr
        {
          OFFSET -8.77824 -1.95073 1.46304
          CHANNELS 3 Zrotation Xrotation Yrotation
          JOINT rForeArm
          {
            OFFSET -28.1742 -1.7115 0.48768
            CHANNELS 3 Zrotation Xrotation Yrotation
            JOINT rHand
            {
              OFFSET -22.5879 0.773209 7.07136
              CHANNELS 3 Zrotation Xrotation Yrotation
              JOINT rThumb1
              {
                OFFSET -1.2192 -0.487915 3.41376
                CHANNELS 3 Zrotation Xrotation Yrotation
                JOINT rThumb2
                {
                  OFFSET -3.37035 -0.52449 3.41376
                  CHANNELS 3 Zrotation Xrotation Yrotation
                  End Site
                  {
                    OFFSET -1.78271 -1.18214 1.43049
                  }
                }
              }
              JOINT rIndex1
              {
                OFFSET -7.75947 0.938293 5.60832
                CHANNELS 3 Zrotation Xrotation Yrotation
                JOINT rIndex2
                {
                  OFFSET -2.54057 -0.884171 1.56538
                  CHANNELS 3 Zrotation Xrotation Yrotation
                  End Site
                  {
                    OFFSET -1.62519 -0.234802 1.16502
                  }
                }
              }
              JOINT rMid1
              {
                OFFSET -8.24714 1.18213 3.41376
                CHANNELS 3 Zrotation Xrotation Yrotation
                JOINT rMid2
                {
                  OFFSET -3.10165 -0.590103 1.0647
                  CHANNELS 3 Zrotation Xrotation Yrotation
                  End Site
                  {
                    OFFSET -2.48547 -0.328903 0.83742
                  }
                }
              }
              JOINT rRing1
              {
                OFFSET -8.82822 0.546677 1.51678
                CHANNELS 3 Zrotation Xrotation Yrotation
                JOINT rRing2
                {
                  OFFSET -2.60934 -0.819778 -0.0198488
                  CHANNELS 3 Zrotation Xrotation Yrotation
                  End Site
                  {
                    OFFSET -2.33842 -0.294052 0.168128
                  }
                }
              }
              JOINT rPinky1
              {
                OFFSET -8.27202 -0.0477905 -0.4584
                CHANNELS 3 Zrotation Xrotation Yrotation
                JOINT rPinky2
                {
                  OFFSET -1.82734 -0.647385 -0.700984
                  CHANNELS 3 Zrotation Xrotation Yrotation
                  End Site
                  {
                    OFFSET -1.69225 -0.51767 -0.607171
                  }
                }
              }
            }
          }
        }
      }
      JOINT lCollar
      {
        OFFSET 2.68224 19.2634 -4.8768
        CHANNELS 3 Zrotation Xrotation Yrotation
        JOINT lShldr
        {
          OFFSET 8.77824 -1.95073 1.46304
          CHANNELS 3 Zrotation Xrotation Yrotation
          JOINT lForeArm
          {
            OFFSET 28.1742 -1.7115 0.48768
            CHANNELS 3 Zrotation Xrotation Yrotation
            JOINT lHand
            {
              OFFSET 22.5879 0.773209 7.07136
              CHANNELS 3 Zrotation Xrotation Yrotation
              JOINT lThumb1
              {
                OFFSET 1.2192 -0.487915 3.41376
                CHANNELS 3 Zrotation Xrotation Yrotation
                JOINT lThumb2
                {
                  OFFSET 3.37035 -0.52449 3.41376
                  CHANNELS 3 Zrotation Xrotation Yrotation
                  End Site
                  {
                    OFFSET 1.78271 -1.18214 1.43049
                  }
                }
              }
              JOINT lIndex1
              {
                OFFSET 7.75947 0.938293 5.60832
                CHANNELS 3 Zrotation Xrotation Yrotation
                JOINT lIndex2
                {
                  OFFSET 2.54057 -0.884171 1.56538
                  CHANNELS 3 Zrotation Xrotation Yrotation
                  End Site
                  {
                    OFFSET 1.62519 -0.234802 1.16502
                  }
                }
              }
              JOINT lMid1
              {
                OFFSET 8.24714 1.18213 3.41376
                CHANNELS 3 Zrotation Xrotation Yrotation
                JOINT lMid2
                {
                  OFFSET 3.10165 -0.590103 1.0647
                  CHANNELS 3 Zrotation Xrotation Yrotation
                  End Site
                  {
                    OFFSET 2.48547 -0.328903 0.83742
                  }
                }
              }
              JOINT lRing1
              {
                OFFSET 8.82822 0.546677 1.51678
                CHANNELS 3 Zrotation Xrotation Yrotation
                JOINT lRing2
                {
                  OFFSET 2.60934 -0.819778 -0.0198488
                  CHANNELS 3 Zrotation Xrotation Yrotation
                  End Site
                  {
                    OFFSET 2.33842 -0.294052 0.168128
                  }
                }
              }
              JOINT lPinky1
              {
                OFFSET 8.27202 -0.0477905 -0.4584
                CHANNELS 3 Zrotation Xrotation Yrotation
                JOINT lPinky2
                {
                  OFFSET 1.82734 -0.647385 -0.700984
                  CHANNELS 3 Zrotation Xrotation Yrotation
                  End Site
                  {
                    OFFSET 1.69225 -0.51767 -0.607171
                  }
                }
              }
            }
          }
        }
      }
    }
  }
  JOINT rButtock
  {
    OFFSET -8.77824 4.35084 1.2192
    CHANNELS 3 Zrotation Xrotation Yrotation
    JOINT rThigh
    {
      OFFSET 0 -1.70687 -2.19456
      CHANNELS 3 Zrotation Xrotation Yrotation
      JOINT rShin
      {
        OFFSET 0 -36.8199 0.73152
        CHANNELS 3 Zrotation Xrotation Yrotation
        JOINT rFoot
        {
          OFFSET 0.73152 -45.1104 -5.12064
          CHANNELS 3 Zrotation Xrotation Yrotation
          End Site
          {
            OFFSET -1.1221 -3.69964 12.103
          }
        }
      }
    }
  }
  JOINT lButtock
  {
    OFFSET 8.77824 4.35084 1.2192
    CHANNELS 3 Zrotation Xrotation Yrotation
    JOINT lThigh
    {
      OFFSET 0 -1.70687 -2.19456
      CHANNELS 3 Zrotation Xrotation Yrotation
      JOINT lShin
      {
        OFFSET 0 -36.8199 0.73152
        CHANNELS 3 Zrotation Xrotation Yrotation
        JOINT lFoot
        {
          OFFSET -0.73152 -45.1104 -5.12064
          CHANNELS 3 Zrotation Xrotation Yrotation
          End Site
          {
            OFFSET 1.1221 -3.69964 12.103
          }
        }
      }
    }
  }
}
MOTION
Frames:	4
Frame Time:	0.00833333
-53.1886 85.1237 23.7638 0.0 0.0 0.0 0.435973 -0.0238512 0.0128201 0.121275 -0.0396248 0.0210494 -1.31011e-15 -7.95139e-16 -1.92573e-16 -3.69926e-15 3.18055e-15 -6.27414e-16 -0.0 0.0 0.0 -0.0 0.0 0.0 -5.47933e-16 1.20358e-17 4.96962e-17 -9.98311e-15 7.0817e-16 -1.19271e-15 -2.12103e-13 7.65321e-14 -5.08889e-14 -2.46722e-12 -1.76918e-14 -4.13472e-13 -5.81666e-12 1.19047e-13 -9.98694e-13 -1.00482e-11 2.06736e-13 -1.74692e-12 -5.81048e-12 1.21656e-13 -1.00506e-12 7.73091 5.47488 0.417314 -5.81664e-12 1.18973e-13 -1.00187e-12 2.90554 0.965183 0.102902 -5.80082e-12 1.1937e-13 -1.01221e-12 10.2786 0.731801 0.0259123 -5.81644e-12 1.19271e-13 -1.01142e-12 2.22167 -0.733487 -0.20892 -5.45427e-16 1.35888e-17 -2.48481e-16 -1.46726e-14 7.57867e-16 -3.18055e-15 -2.17272e-13 -5.4467e-14 -2.8625e-14 -2.47199e-12 1.19022e-13 -4.38917e-13 -5.83146e-12 1.30266e-13 -1.0305e-12 -1.0068e-11 2.19458e-13 -1.75408e-12 -5.83552e-12 1.31198e-13 -1.02096e-12 -7.73091 5.47488 -0.417314 -5.83254e-12 1.30502e-13 -1.02414e-12 -2.90554 0.965183 -0.102902 -5.84311e-12 1.30701e-13 -1.0138e-12 -10.2786 0.731801 -0.0259123 -5.82678e-12 1.308e-13 -1.0146e-12 -2.22167 -0.733487 0.20892 -2.03217e-16 0.0 -3.88251e-19 0.651934 -4.7111 -0.0694749 -0.000843704 2.99808 0.00382224 -0.326326 1.72324 0.0697808 2.03217e-16 0.0 3.88251e-19 0.0330932 -2.68025 0.0231612 0.00579532 -0.679761 0.0505451 0.296207 3.3702 -0.0966866
-59.0169 84.2758 11.8522 -145.74 -82.172 154.821 2.24038 -1.11315 2.03831 0.450373 -4.14463 0.564971 0.214739 -0.774807 -0.240031 -0.340406 5.10205 -0.935652 -0.0 0.0 0.0 -0.0 0.0 0.0 1.03079e-13 -2.1877e-12 1.007e-13 19.2268 13.4321 -2.26724 -4.71616 -2.2519 7.24413 0.0231996 -3.39978 -0.474831 -1.32084e-09 -2.68465e-10 4.19819e-10 -2.28614e-09 -4.61783e-10 7.15197e-10 -1.32084e-09 -2.68463e-10 4.19814e-10 7.73091 5.47488 0.417314 -1.32084e-09 -2.68465e-10 4.19818e-10 2.90554 0.965183 0.102902 -1.32083e-09 -2.68465e-10 4.19811e-10 10.2786 0.731801 0.0259123 -1.32084e-09 -2.68463e-10 4.19815e-10 2.22167 -0.733487 -0.20892 1.03052e-13 -2.1877e-12 1.0043e-13 -21.0001 1.72342 2.43661 5.30366 -2.67235 -7.98119 -0.0223692 3.32178 -0.464024 -1.23326e-09 8.74858e-10 -3.60446e-10 -2.13397e-09 1.53093e-09 -6.08946e-10 -1.23327e-09 8.74859e-10 -3.60438e-10 -7.73091 5.47488 -0.417314 -1.23326e-09 8.74858e-10 -3.6044e-10 -2.90554 0.965183 -0.102902 -1.23327e-09 8.74859e-10 -3.60433e-10 -10.2786 0.731801 -0.0259123 -1.23326e-09 8.7486e-10 -3.60435e-10 -2.22167 -0.733487 0.20892 -2.03217e-16 0.0 -3.88251e-19 5.75856 -6.06907 3.60456 -0.00976175 3.81511 -0.0874376 0.0111678 -5.07149 -7.4993 2.03217e-16 0.0 3.88251e-19 2.89687 -9.48054 -7.12927 -0.0189846 0.736063 -0.116192 0.559843 -2.68266 3.996
-59.0663 84.2983 11.8074 -146.308 -82.1478 155.325 4.23203 -2.25885 4.18115 0.883363 -8.484 1.14917 0.435202 -1.59238 -0.494497 -0.516129 10.4915 -1.95122 -0.0 0.0 0.0 -0.0 0.0 0.0 2.187e-13 -4.64296e-12 2.13147e-13 40.8473 27.5666 -5.12427 -9.08688 -4.51168 14.9363 -0.0143162 -7.03574 -0.988411 -2.71872e-09 -5.49999e-10 8.39829e-10 -4.70565e-09 -9.45965e-10 1.42992e-09 -2.71871e-09 -5.49999e-10 8.39824e-10 7.73091 5.47488 0.417314 -2.71872e-09 -5.49999e-10 8.3983e-10 2.90554 0.965183 0.102902 -2.7187e-09 -5.49999e-10 8.39826e-10 10.2786 0.731801 0.0259123 -2.71872e-09 -5.49995e-10 8.39833e-10 2.22167 -0.733487 -0.20892 2.1864e-13 -4.64297e-12 2.12908e-13 -43.3202 3.28022 5.00699 10.1404 -5.34963 -16.5226 0.0129584 6.84941 -0.962135 -2.60033e-09 1.86744e-09 -6.91616e-10 -4.49882e-09 3.26714e-09 -1.1657e-09 -2.60033e-09 1.86744e-09 -6.91608e-10 -7.73091 5.47488 -0.417314 -2.60032e-09 1.86744e-09 -6.9161e-10 -2.90554 0.965183 -0.102902 -2.60033e-09 1.86744e-09 -6.91607e-10 -10.2786 0.731801 -0.0259123 -2.60032e-09 1.86745e-09 -6.91609e-10 -2.22167 -0.733487 0.20892 -2.03217e-16 0.0 -3.88251e-19 11.3475 -7.46846 7.5077 -0.0163414 4.67922 -0.184083 -1.59648 -11.8896 -15.7879 2.03217e-16 0.0 3.88251e-19 4.03112 -16.2691 -15.1147 -0.0361493 2.22769 -0.292251 1.77585 -8.92319 8.42148
-59.1025 84.2971 11.7534 -146.652 -82.1019 155.641 6.08007 -3.27528 6.09814 1.34711 -12.35 1.68744 0.624729 -2.32426 -0.720619 -0.505929 15.2895 -2.89851 -0.0 0.0 0.0 -0.0 0.0 0.0 3.10332e-13 -6.56311e-12 3.02001e-13 61.685 40.0038 -8.65015 -12.477 -6.32466 21.8553 -0.101743 -10.1965 -1.44481 -3.95089e-09 -8.05632e-10 1.26146e-09 -6.83831e-09 -1.38576e-09 2.14909e-09 -3.95089e-09 -8.05633e-10 1.26145e-09 7.73091 5.47488 0.417314 -3.95089e-09 -8.05632e-10 1.26146e-09 2.90554 0.965183 0.102902 -3.95089e-09 -8.05633e-10 1.26146e-09 10.2786 0.731801 0.0259123 -3.9509e-09 -8.05627e-10 1.26147e-09 2.22167 -0.733487 -0.20892 3.10248e-13 -6.56312e-12 3.01787e-13 -63.4402 5.13279 7.33611 13.7342 -7.39614 -24.1307 0.0963925 9.9627 -1.41101 -3.68813e-09 2.62431e-09 -1.07928e-09 -6.38179e-09 4.59234e-09 -1.82333e-09 -3.68813e-09 2.62431e-09 -1.07927e-09 -7.73091 5.47488 -0.417314 -3.68813e-09 2.62431e-09 -1.07927e-09 -2.90554 0.965183 -0.102902 -3.68813e-09 2.62431e-09 -1.07927e-09 -10.2786 0.731801 -0.0259123 -3.68813e-09 2.62432e-09 -1.07928e-09 -2.22167 -0.733487 0.20892 -2.03217e-16 0.0 -3.88251e-19 16.4951 -8.66069 11.0187 -0.0197554 5.44913 -0.270588 -4.75191 -17.3075 -23.6818 2.03217e-16 0.0 3.88251e-19 3.339 -21.6481 -22.8316 -0.0437894 3.56761 -0.450503 3.72577 -14.468 12.5728
